HIERARCHY
ROOT root
{
	OFFSET 0.000000 0.000000 0.000000
	CHANNELS 6 Xposition Yposition Zposition Zrotation Yrotation Xrotation
	JOINT lhip
	{
		OFFSET 0.058581 -0.082280 -0.017664
		CHANNELS 3 Zrotation Yrotation Xrotation
		JOINT lknee
		{
			OFFSET 0.043451 -0.386469 0.008037
			CHANNELS 3 Zrotation Yrotation Xrotation
			JOINT lankle
			{
				OFFSET -0.014790 -0.426874 -0.037428
				CHANNELS 3 Zrotation Yrotation Xrotation
				JOINT ltoe
				{
					OFFSET 0.041054 -0.060286 0.122042
					CHANNELS 3 Zrotation Yrotation Xrotation
					End Site
					{
						OFFSET 0.000000 0.000000 0.000000
					}
				}
			}
		}
	}
	JOINT rhip
	{
		OFFSET -0.060310 -0.090513 -0.013543
		CHANNELS 3 Zrotation Yrotation Xrotation
		JOINT rknee
		{
			OFFSET -0.043257 -0.383688 -0.004843
			CHANNELS 3 Zrotation Yrotation Xrotation
			JOINT rankle
			{
				OFFSET 0.019056 -0.420046 -0.034562
				CHANNELS 3 Zrotation Yrotation Xrotation
				JOINT rtoe
				{
					OFFSET -0.034840 -0.062106 0.130323
					CHANNELS 3 Zrotation Yrotation Xrotation
					End Site
					{
						OFFSET 0.000000 0.000000 0.000000
					}
				}
			}
		}
	}
	JOINT lowerback
	{
		OFFSET 0.004439 0.124404 -0.038385
		CHANNELS 3 Zrotation Yrotation Xrotation
		JOINT upperback
		{
			OFFSET 0.004488 0.137956 0.026820
			CHANNELS 3 Zrotation Yrotation Xrotation
			JOINT chest
			{
				OFFSET -0.002265 0.056032 0.002855
				CHANNELS 3 Zrotation Yrotation Xrotation
				JOINT lowerneck
				{
					OFFSET -0.013390 0.211636 -0.033468
					CHANNELS 3 Zrotation Yrotation Xrotation
					JOINT upperneck
					{
						OFFSET 0.010113 0.088937 0.050410
						CHANNELS 3 Zrotation Yrotation Xrotation
						End Site
						{
							OFFSET 0.000000 0.000000 0.000000
						}
					}
				}
				JOINT lclavicle
				{
					OFFSET 0.071702 0.114000 -0.018898
					CHANNELS 3 Zrotation Yrotation Xrotation
					JOINT lshoulder
					{
						OFFSET 0.122921 0.045205 -0.019046
						CHANNELS 3 Zrotation Yrotation Xrotation
						JOINT lelbow
						{
							OFFSET 0.255332 -0.015649 -0.022946
							CHANNELS 3 Zrotation Yrotation Xrotation
							JOINT lwrist
							{
								OFFSET 0.265709 0.012698 -0.007375
								CHANNELS 3 Zrotation Yrotation Xrotation
								End Site
								{
									OFFSET 0.000000 0.000000 0.000000
								}
							}
						}
					}
				}
				JOINT rclavicle
				{
					OFFSET -0.082954 0.112472 -0.023707
					CHANNELS 3 Zrotation Yrotation Xrotation
					JOINT rshoulder
					{
						OFFSET -0.113228 0.046853 -0.008472
						CHANNELS 3 Zrotation Yrotation Xrotation
						JOINT relbow
						{
							OFFSET -0.260127 -0.014369 -0.031269
							CHANNELS 3 Zrotation Yrotation Xrotation
							JOINT rwrist
							{
								OFFSET -0.269108 0.006794 -0.006027
								CHANNELS 3 Zrotation Yrotation Xrotation
								End Site
								{
									OFFSET 0.000000 0.000000 0.000000
								}
							}
						}
					}
				}
			}
		}
	}
}
MOTION
Frames: 8
Frame Time: 0.033333
0.161272 0.250347 0.992548 93.712792 1.109566 82.731670 0.880685 1.246824 11.750958 -5.238364 -11.528869 4.623010 4.947169 12.016826 -21.025121 0.000000 -0.000000 0.000000 -1.395027 1.247137 -16.563597 0.456701 -11.054003 46.853684 4.611352 -9.568713 -16.105895 0.000000 -0.000000 0.000000 -1.546653 -3.080984 10.996416 2.104058 0.290641 -0.374982 0.236541 -1.645725 1.460278 3.233182 4.221488 -4.914098 0.267186 -0.657584 3.305596 -27.693086 7.328973 0.549448 -60.871221 -4.925827 10.347506 14.858730 -35.079911 10.135160 -6.746899 -6.882271 -6.918718 29.186224 -8.571853 1.488061 58.751408 -7.657792 11.540746 -18.430445 29.505778 3.941296 13.769858 5.237914 0.959521 
0.206480 0.249813 0.988267 96.144582 1.472393 83.063436 2.901885 2.038305 15.784896 -5.882503 -13.738191 2.414240 3.604273 10.493544 -21.899973 0.000000 -0.000000 0.000000 -2.078413 1.190586 -19.268008 0.691496 -13.754110 35.542904 5.430810 -10.275071 -16.405900 0.000000 -0.000000 0.000000 -1.654808 -4.530103 11.073523 2.559439 -0.502608 -0.323630 0.819485 -2.396273 1.190949 2.807583 4.523841 -4.812911 0.793159 -1.278398 3.487764 -26.291489 6.140017 0.556595 -60.819597 -9.605563 11.962080 13.463346 -38.866851 11.289007 -6.608374 -8.345606 -7.034939 29.083309 -10.086736 1.829647 59.020563 -10.246601 10.936218 -18.871268 27.484636 5.727004 16.137591 3.963105 2.948413 
0.252396 0.249109 0.979901 97.895531 1.257664 83.273252 4.790214 2.908467 19.890037 -6.725897 -15.115481 0.578942 2.580240 8.601170 -22.777590 0.000000 -0.000000 0.000000 -2.796002 0.473250 -20.831037 1.728822 -13.239377 23.025778 6.581158 -9.665374 -14.714692 0.000000 -0.000000 0.000000 -2.101958 -5.050108 10.533824 2.851514 -1.261069 0.484947 1.202834 -3.229376 1.077413 2.537264 5.178535 -4.610548 1.357019 -1.527231 2.934198 -24.953772 5.031822 0.491343 -60.275790 -14.253676 13.097356 12.518348 -42.444250 11.610459 -5.074212 -9.723500 -7.927935 29.008643 -11.481507 2.092282 59.766459 -12.381185 10.362253 -20.226281 25.434125 5.269349 16.337102 3.003416 3.391784 
0.299735 0.248514 0.967974 98.883930 0.605473 83.888969 6.279104 4.076400 22.848103 -7.716614 -16.642056 0.456198 1.779534 7.230788 -23.671842 0.000000 -0.000000 0.000000 -3.270703 -0.968828 -22.513499 2.793477 -9.463342 12.497400 7.048995 -6.975297 -13.570055 0.000000 -0.000000 0.000000 -2.673987 -4.972180 9.132779 3.026842 -1.972552 1.402842 1.426813 -3.944266 1.171314 1.980417 5.206306 -4.181109 2.038455 -1.522557 1.953938 -23.707102 4.535384 -0.114720 -59.965009 -18.020994 14.170729 11.746136 -46.192809 10.474447 -1.838436 -8.853576 -10.283578 29.021943 -13.568556 2.029546 60.164582 -14.025623 9.754668 -21.576300 24.248072 3.857821 15.602054 1.954786 4.312325 
0.345817 0.247958 0.956863 101.084210 -0.021337 84.617642 7.452256 4.588933 24.151075 -8.135231 -18.349358 2.338734 1.262483 6.340265 -25.192054 0.000000 -0.000000 0.000000 -4.361492 -3.490686 -23.962550 3.962882 -7.364898 6.437139 7.812470 -5.731866 -12.579865 0.000000 -0.000000 0.000000 -2.951194 -5.360739 8.519269 3.106934 -3.121160 1.444709 1.349103 -5.096172 1.362730 2.055633 5.618798 -5.229958 1.872058 -2.018322 2.467333 -23.625786 4.562944 -0.702384 -58.713188 -21.565079 14.128642 12.145128 -49.499812 9.626991 -1.431650 -10.529716 -11.110627 29.813561 -15.217717 1.208534 59.639421 -15.211439 8.962708 -22.575263 23.068357 2.170157 16.375354 0.963250 4.134365 
0.394229 0.247695 0.948706 103.204323 0.056937 85.555043 8.840926 3.993951 24.535805 -8.364371 -20.396942 5.700542 0.079977 5.469722 -25.220449 0.000000 -0.000000 0.000000 -5.793434 -3.009567 -25.001349 4.844542 -7.001895 5.580631 8.956026 -5.437685 -10.796533 0.000000 -0.000000 0.000000 -2.111271 -6.620750 7.563584 3.347989 -3.812814 1.413460 1.075608 -5.921239 1.319742 1.670311 5.692549 -5.549909 1.385256 -1.524631 2.282601 -24.188169 4.722048 -0.310324 -57.902411 -24.062488 13.833271 14.152466 -52.369812 7.224955 -0.681263 -10.972126 -12.277151 30.294894 -16.245847 0.549814 58.540440 -16.249903 8.619835 -22.831260 22.317233 0.859846 15.762710 1.089095 2.891030 
0.447175 0.247135 0.944132 103.512737 0.294262 85.785014 9.354138 3.163945 26.007353 -8.149081 -22.110093 9.367684 -1.445639 5.654965 -23.436724 0.000000 -0.000000 0.000000 -5.839181 -1.119081 -25.903821 4.587194 -7.819499 10.460046 9.711547 -5.317634 -11.393665 0.000000 -0.000000 0.000000 -1.298025 -7.980755 6.891816 3.695455 -3.264898 1.554046 0.968652 -6.101029 1.289708 1.268286 5.812671 -6.436545 0.415266 -1.266077 2.800631 -24.960196 5.563967 -0.635416 -58.257103 -24.314492 13.987978 17.219531 -54.938557 3.925636 -1.507077 -11.094501 -12.399815 30.707366 -16.548291 0.125722 57.164523 -16.982182 8.557478 -23.041828 22.033155 -0.073688 16.817570 0.924569 2.029409 
0.503260 0.244631 0.943686 102.595507 0.939339 86.767179 8.639550 1.403950 25.809587 -7.775466 -21.250406 14.763875 -2.325030 6.578892 -19.078177 0.000000 -0.000000 0.000000 -4.630296 0.296580 -27.517716 4.088026 -10.016046 16.346969 9.267693 -6.201452 -5.274128 0.000000 -0.000000 0.000000 0.191620 -8.629047 5.058357 4.136179 -2.568649 1.971415 0.836266 -5.859938 0.877872 0.597110 5.254648 -7.044746 -0.430701 0.083710 3.319732 -26.152432 6.748783 -0.372268 -59.169826 -23.176614 14.200202 21.155070 -56.779788 0.389858 -1.773021 -11.571409 -11.854455 31.008034 -16.537153 0.243339 55.675296 -16.974429 8.698088 -23.008238 21.695563 -0.376580 17.173073 1.054050 1.252137 
